<?xml version="1.0" standalone="no"?>
<!DOCTYPE svg PUBLIC "-//W3C//DTD SVG 20010904//EN"
 "http://www.w3.org/TR/2001/REC-SVG-20010904/DTD/svg10.dtd">
<svg version="1.0" xmlns="http://www.w3.org/2000/svg"
 width="121.000000pt" height="121.000000pt" viewBox="0 0 121.000000 121.000000"
 preserveAspectRatio="xMidYMid meet">
<metadata>
Created by potrace 1.16, written by Peter Selinger 2001-2019
</metadata>
<g transform="translate(0.000000,121.000000) scale(0.100000,-0.100000)"
fill="#000000" stroke="none">
<path d="M653 903 c-13 -2 -23 -7 -23 -10 0 -3 21 -38 48 -78 26 -39 52 -80
58 -91 11 -17 15 -12 43 48 42 86 44 119 11 129 -27 8 -102 9 -137 2z"/>
<path d="M455 823 l-60 -38 74 -5 c90 -6 107 -22 77 -73 -69 -117 -93 -162
-127 -240 -21 -48 -39 -96 -39 -105 0 -10 16 -33 35 -52 29 -28 37 -31 50 -20
13 11 20 9 45 -15 24 -23 27 -31 18 -42 -9 -12 -6 -19 18 -38 49 -41 168 -95
205 -94 l34 1 -34 14 c-19 9 -58 39 -86 69 -56 57 -162 208 -185 264 -13 32
-12 35 8 51 18 15 35 17 104 13 148 -9 413 23 424 52 11 28 -14 61 -56 74 -40
12 -42 14 -36 44 3 18 13 37 21 43 12 9 10 17 -12 53 l-26 44 -34 -74 c-57
-126 -87 -181 -101 -186 -26 -11 -59 16 -87 68 -43 83 -144 229 -158 229 -7 0
-39 -17 -72 -37z"/>
<path d="M359 683 c-42 -4 -48 -8 -60 -36 -18 -42 -16 -134 2 -170 l15 -28 24
58 c13 32 38 84 56 115 28 50 33 72 15 66 -3 -1 -27 -3 -52 -5z"/>
<path d="M975 454 c-80 -16 -241 -34 -310 -34 -30 0 -55 -3 -55 -6 0 -29 172
-224 198 -224 12 0 14 11 9 63 -4 34 -9 72 -13 84 -5 18 0 23 32 32 47 13 49
10 66 -86 14 -84 18 -84 80 11 39 60 62 123 56 155 -3 16 -8 16 -63 5z"/>
</g>
</svg>
